<svg xmlns="http://www.w3.org/2000/svg" version="1.1" xmlns:xlink="http://www.w3.org/1999/xlink" xmlns:svgjs="http://svgjs.com/svgjs" width="1440" height="560" preserveAspectRatio="none" viewBox="0 0 1440 560"><g mask="url(&quot;#SvgjsMask1018&quot;)" fill="none"><rect width="1440" height="560" x="0" y="0" fill="#0e2a47"></rect><path d="M64.45 -26.89L129.4 10.61L129.4 85.61L64.45 123.11L-0.5 85.61L-0.5 10.61zM129.4 85.61L194.36 123.11L194.36 198.11L129.4 235.61L64.45 198.11L64.45 123.11zM64.45 198.11L129.4 235.61L129.4 310.61L64.45 348.11L-0.5 310.61L-0.5 235.61zM129.4 535.61L194.36 573.11L194.36 648.11L129.4 685.61L64.45 648.11L64.45 573.11zM194.36 -26.89L259.31 10.61L259.31 85.61L194.36 123.11L129.4 85.61L129.4 10.61zM194.36 198.11L259.31 235.61L259.31 310.61L194.36 348.11L129.4 310.61L129.4 235.61zM194.36 423.11L259.31 460.61L259.31 535.61L194.36 573.11L129.4 535.61L129.4 460.61zM259.31 535.61L324.26 573.11L324.26 648.11L259.31 685.61L194.36 648.11L194.36 573.11zM389.22 85.61L454.17 123.11L454.17 198.11L389.22 235.61L324.26 198.11L324.26 123.11zM389.22 535.61L454.17 573.11L454.17 648.11L389.22 685.61L324.26 648.11L324.26 573.11zM519.13 85.61L584.08 123.11L584.08 198.11L519.13 235.61L454.17 198.11L454.17 123.11zM454.17 198.11L519.13 235.61L519.13 310.61L454.17 348.11L389.22 310.61L389.22 235.61zM519.13 310.61L584.08 348.11L584.08 423.11L519.13 460.61L454.17 423.11L454.17 348.11zM649.03 310.61L713.99 348.11L713.99 423.11L649.03 460.61L584.08 423.11L584.08 348.11zM649.03 535.61L713.99 573.11L713.99 648.11L649.03 685.61L584.08 648.11L584.08 573.11zM713.99 198.11L778.94 235.61L778.94 310.61L713.99 348.11L649.03 310.61L649.03 235.61zM843.89 198.11L908.85 235.61L908.85 310.61L843.89 348.11L778.94 310.61L778.94 235.61zM843.89 423.11L908.85 460.61L908.85 535.61L843.89 573.11L778.94 535.61L778.94 460.61zM908.85 535.61L973.8 573.11L973.8 648.11L908.85 685.61L843.89 648.11L843.89 573.11zM1038.76 85.61L1103.71 123.11L1103.71 198.11L1038.76 235.61L973.8 198.11L973.8 123.11zM973.8 198.11L1038.76 235.61L1038.76 310.61L973.8 348.11L908.85 310.61L908.85 235.61zM1168.66 535.61L1233.62 573.11L1233.62 648.11L1168.66 685.61L1103.71 648.11L1103.71 573.11zM1233.62 198.11L1298.57 235.61L1298.57 310.61L1233.62 348.11L1168.66 310.61L1168.66 235.61zM1233.62 423.11L1298.57 460.61L1298.57 535.61L1233.62 573.11L1168.66 535.61L1168.66 460.61zM1428.48 85.61L1493.43 123.11L1493.43 198.11L1428.48 235.61L1363.53 198.11L1363.53 123.11zM1428.48 535.61L1493.43 573.11L1493.43 648.11L1428.48 685.61L1363.53 648.11L1363.53 573.11zM1558.39 85.61L1623.34 123.11L1623.34 198.11L1558.39 235.61L1493.43 198.11L1493.43 123.11zM1558.39 310.61L1623.34 348.11L1623.34 423.11L1558.39 460.61L1493.43 423.11L1493.43 348.11z" stroke="url(#SvgjsLinearGradient1019)" stroke-width="2"></path><path d="M56.95 -26.89 a7.5 7.5 0 1 0 15 0 a7.5 7.5 0 1 0 -15 0zM121.9 10.61 a7.5 7.5 0 1 0 15 0 a7.5 7.5 0 1 0 -15 0zM121.9 85.61 a7.5 7.5 0 1 0 15 0 a7.5 7.5 0 1 0 -15 0zM56.95 123.11 a7.5 7.5 0 1 0 15 0 a7.5 7.5 0 1 0 -15 0zM-8 85.61 a7.5 7.5 0 1 0 15 0 a7.5 7.5 0 1 0 -15 0zM-8 10.61 a7.5 7.5 0 1 0 15 0 a7.5 7.5 0 1 0 -15 0zM186.86 123.11 a7.5 7.5 0 1 0 15 0 a7.5 7.5 0 1 0 -15 0zM186.86 198.11 a7.5 7.5 0 1 0 15 0 a7.5 7.5 0 1 0 -15 0zM121.9 235.61 a7.5 7.5 0 1 0 15 0 a7.5 7.5 0 1 0 -15 0zM56.95 198.11 a7.5 7.5 0 1 0 15 0 a7.5 7.5 0 1 0 -15 0zM121.9 310.61 a7.5 7.5 0 1 0 15 0 a7.5 7.5 0 1 0 -15 0zM56.95 348.11 a7.5 7.5 0 1 0 15 0 a7.5 7.5 0 1 0 -15 0zM-8 310.61 a7.5 7.5 0 1 0 15 0 a7.5 7.5 0 1 0 -15 0zM-8 235.61 a7.5 7.5 0 1 0 15 0 a7.5 7.5 0 1 0 -15 0zM121.9 535.61 a7.5 7.5 0 1 0 15 0 a7.5 7.5 0 1 0 -15 0zM186.86 573.11 a7.5 7.5 0 1 0 15 0 a7.5 7.5 0 1 0 -15 0zM186.86 648.11 a7.5 7.5 0 1 0 15 0 a7.5 7.5 0 1 0 -15 0zM121.9 685.61 a7.5 7.5 0 1 0 15 0 a7.5 7.5 0 1 0 -15 0zM56.95 648.11 a7.5 7.5 0 1 0 15 0 a7.5 7.5 0 1 0 -15 0zM56.95 573.11 a7.5 7.5 0 1 0 15 0 a7.5 7.5 0 1 0 -15 0zM186.86 -26.89 a7.5 7.5 0 1 0 15 0 a7.5 7.5 0 1 0 -15 0zM251.81 10.61 a7.5 7.5 0 1 0 15 0 a7.5 7.5 0 1 0 -15 0zM251.81 85.61 a7.5 7.5 0 1 0 15 0 a7.5 7.5 0 1 0 -15 0zM251.81 235.61 a7.5 7.5 0 1 0 15 0 a7.5 7.5 0 1 0 -15 0zM251.81 310.61 a7.5 7.5 0 1 0 15 0 a7.5 7.5 0 1 0 -15 0zM186.86 348.11 a7.5 7.5 0 1 0 15 0 a7.5 7.5 0 1 0 -15 0zM186.86 423.11 a7.5 7.5 0 1 0 15 0 a7.5 7.5 0 1 0 -15 0zM251.81 460.61 a7.5 7.5 0 1 0 15 0 a7.5 7.5 0 1 0 -15 0zM251.81 535.61 a7.5 7.5 0 1 0 15 0 a7.5 7.5 0 1 0 -15 0zM121.9 460.61 a7.5 7.5 0 1 0 15 0 a7.5 7.5 0 1 0 -15 0zM316.76 573.11 a7.5 7.5 0 1 0 15 0 a7.5 7.5 0 1 0 -15 0zM316.76 648.11 a7.5 7.5 0 1 0 15 0 a7.5 7.5 0 1 0 -15 0zM251.81 685.61 a7.5 7.5 0 1 0 15 0 a7.5 7.5 0 1 0 -15 0zM381.72 85.61 a7.5 7.5 0 1 0 15 0 a7.5 7.5 0 1 0 -15 0zM446.67 123.11 a7.5 7.5 0 1 0 15 0 a7.5 7.5 0 1 0 -15 0zM446.67 198.11 a7.5 7.5 0 1 0 15 0 a7.5 7.5 0 1 0 -15 0zM381.72 235.61 a7.5 7.5 0 1 0 15 0 a7.5 7.5 0 1 0 -15 0zM316.76 198.11 a7.5 7.5 0 1 0 15 0 a7.5 7.5 0 1 0 -15 0zM316.76 123.11 a7.5 7.5 0 1 0 15 0 a7.5 7.5 0 1 0 -15 0zM381.72 535.61 a7.5 7.5 0 1 0 15 0 a7.5 7.5 0 1 0 -15 0zM446.67 573.11 a7.5 7.5 0 1 0 15 0 a7.5 7.5 0 1 0 -15 0zM446.67 648.11 a7.5 7.5 0 1 0 15 0 a7.5 7.5 0 1 0 -15 0zM381.72 685.61 a7.5 7.5 0 1 0 15 0 a7.5 7.5 0 1 0 -15 0zM511.63 85.61 a7.5 7.5 0 1 0 15 0 a7.5 7.5 0 1 0 -15 0zM576.58 123.11 a7.5 7.5 0 1 0 15 0 a7.5 7.5 0 1 0 -15 0zM576.58 198.11 a7.5 7.5 0 1 0 15 0 a7.5 7.5 0 1 0 -15 0zM511.63 235.61 a7.5 7.5 0 1 0 15 0 a7.5 7.5 0 1 0 -15 0zM511.63 310.61 a7.5 7.5 0 1 0 15 0 a7.5 7.5 0 1 0 -15 0zM446.67 348.11 a7.5 7.5 0 1 0 15 0 a7.5 7.5 0 1 0 -15 0zM381.72 310.61 a7.5 7.5 0 1 0 15 0 a7.5 7.5 0 1 0 -15 0zM576.58 348.11 a7.5 7.5 0 1 0 15 0 a7.5 7.5 0 1 0 -15 0zM576.58 423.11 a7.5 7.5 0 1 0 15 0 a7.5 7.5 0 1 0 -15 0zM511.63 460.61 a7.5 7.5 0 1 0 15 0 a7.5 7.5 0 1 0 -15 0zM446.67 423.11 a7.5 7.5 0 1 0 15 0 a7.5 7.5 0 1 0 -15 0zM641.53 310.61 a7.5 7.5 0 1 0 15 0 a7.5 7.5 0 1 0 -15 0zM706.49 348.11 a7.5 7.5 0 1 0 15 0 a7.5 7.5 0 1 0 -15 0zM706.49 423.11 a7.5 7.5 0 1 0 15 0 a7.5 7.5 0 1 0 -15 0zM641.53 460.61 a7.5 7.5 0 1 0 15 0 a7.5 7.5 0 1 0 -15 0zM641.53 535.61 a7.5 7.5 0 1 0 15 0 a7.5 7.5 0 1 0 -15 0zM706.49 573.11 a7.5 7.5 0 1 0 15 0 a7.5 7.5 0 1 0 -15 0zM706.49 648.11 a7.5 7.5 0 1 0 15 0 a7.5 7.5 0 1 0 -15 0zM641.53 685.61 a7.5 7.5 0 1 0 15 0 a7.5 7.5 0 1 0 -15 0zM576.58 648.11 a7.5 7.5 0 1 0 15 0 a7.5 7.5 0 1 0 -15 0zM576.58 573.11 a7.5 7.5 0 1 0 15 0 a7.5 7.5 0 1 0 -15 0zM706.49 198.11 a7.5 7.5 0 1 0 15 0 a7.5 7.5 0 1 0 -15 0zM771.44 235.61 a7.5 7.5 0 1 0 15 0 a7.5 7.5 0 1 0 -15 0zM771.44 310.61 a7.5 7.5 0 1 0 15 0 a7.5 7.5 0 1 0 -15 0zM641.53 235.61 a7.5 7.5 0 1 0 15 0 a7.5 7.5 0 1 0 -15 0zM836.39 198.11 a7.5 7.5 0 1 0 15 0 a7.5 7.5 0 1 0 -15 0zM901.35 235.61 a7.5 7.5 0 1 0 15 0 a7.5 7.5 0 1 0 -15 0zM901.35 310.61 a7.5 7.5 0 1 0 15 0 a7.5 7.5 0 1 0 -15 0zM836.39 348.11 a7.5 7.5 0 1 0 15 0 a7.5 7.5 0 1 0 -15 0zM836.39 423.11 a7.5 7.5 0 1 0 15 0 a7.5 7.5 0 1 0 -15 0zM901.35 460.61 a7.5 7.5 0 1 0 15 0 a7.5 7.5 0 1 0 -15 0zM901.35 535.61 a7.5 7.5 0 1 0 15 0 a7.5 7.5 0 1 0 -15 0zM836.39 573.11 a7.5 7.5 0 1 0 15 0 a7.5 7.5 0 1 0 -15 0zM771.44 535.61 a7.5 7.5 0 1 0 15 0 a7.5 7.5 0 1 0 -15 0zM771.44 460.61 a7.5 7.5 0 1 0 15 0 a7.5 7.5 0 1 0 -15 0zM966.3 573.11 a7.5 7.5 0 1 0 15 0 a7.5 7.5 0 1 0 -15 0zM966.3 648.11 a7.5 7.5 0 1 0 15 0 a7.5 7.5 0 1 0 -15 0zM901.35 685.61 a7.5 7.5 0 1 0 15 0 a7.5 7.5 0 1 0 -15 0zM836.39 648.11 a7.5 7.5 0 1 0 15 0 a7.5 7.5 0 1 0 -15 0zM1031.26 85.61 a7.5 7.5 0 1 0 15 0 a7.5 7.5 0 1 0 -15 0zM1096.21 123.11 a7.5 7.5 0 1 0 15 0 a7.5 7.5 0 1 0 -15 0zM1096.21 198.11 a7.5 7.5 0 1 0 15 0 a7.5 7.5 0 1 0 -15 0zM1031.26 235.61 a7.5 7.5 0 1 0 15 0 a7.5 7.5 0 1 0 -15 0zM966.3 198.11 a7.5 7.5 0 1 0 15 0 a7.5 7.5 0 1 0 -15 0zM966.3 123.11 a7.5 7.5 0 1 0 15 0 a7.5 7.5 0 1 0 -15 0zM1031.26 310.61 a7.5 7.5 0 1 0 15 0 a7.5 7.5 0 1 0 -15 0zM966.3 348.11 a7.5 7.5 0 1 0 15 0 a7.5 7.5 0 1 0 -15 0zM1161.16 535.61 a7.5 7.5 0 1 0 15 0 a7.5 7.5 0 1 0 -15 0zM1226.12 573.11 a7.5 7.5 0 1 0 15 0 a7.5 7.5 0 1 0 -15 0zM1226.12 648.11 a7.5 7.5 0 1 0 15 0 a7.5 7.5 0 1 0 -15 0zM1161.16 685.61 a7.5 7.5 0 1 0 15 0 a7.5 7.5 0 1 0 -15 0zM1096.21 648.11 a7.5 7.5 0 1 0 15 0 a7.5 7.5 0 1 0 -15 0zM1096.21 573.11 a7.5 7.5 0 1 0 15 0 a7.5 7.5 0 1 0 -15 0zM1226.12 198.11 a7.5 7.5 0 1 0 15 0 a7.5 7.5 0 1 0 -15 0zM1291.07 235.61 a7.5 7.5 0 1 0 15 0 a7.5 7.5 0 1 0 -15 0zM1291.07 310.61 a7.5 7.5 0 1 0 15 0 a7.5 7.5 0 1 0 -15 0zM1226.12 348.11 a7.5 7.5 0 1 0 15 0 a7.5 7.5 0 1 0 -15 0zM1161.16 310.61 a7.5 7.5 0 1 0 15 0 a7.5 7.5 0 1 0 -15 0zM1161.16 235.61 a7.5 7.5 0 1 0 15 0 a7.5 7.5 0 1 0 -15 0zM1226.12 423.11 a7.5 7.5 0 1 0 15 0 a7.5 7.5 0 1 0 -15 0zM1291.07 460.61 a7.5 7.5 0 1 0 15 0 a7.5 7.5 0 1 0 -15 0zM1291.07 535.61 a7.5 7.5 0 1 0 15 0 a7.5 7.5 0 1 0 -15 0zM1161.16 460.61 a7.5 7.5 0 1 0 15 0 a7.5 7.5 0 1 0 -15 0zM1420.98 85.61 a7.5 7.5 0 1 0 15 0 a7.5 7.5 0 1 0 -15 0zM1485.93 123.11 a7.5 7.5 0 1 0 15 0 a7.5 7.5 0 1 0 -15 0zM1485.93 198.11 a7.5 7.5 0 1 0 15 0 a7.5 7.5 0 1 0 -15 0zM1420.98 235.61 a7.5 7.5 0 1 0 15 0 a7.5 7.5 0 1 0 -15 0zM1356.03 198.11 a7.5 7.5 0 1 0 15 0 a7.5 7.5 0 1 0 -15 0zM1356.03 123.11 a7.5 7.5 0 1 0 15 0 a7.5 7.5 0 1 0 -15 0zM1420.98 535.61 a7.5 7.5 0 1 0 15 0 a7.5 7.5 0 1 0 -15 0zM1485.93 573.11 a7.5 7.5 0 1 0 15 0 a7.5 7.5 0 1 0 -15 0zM1485.93 648.11 a7.5 7.5 0 1 0 15 0 a7.5 7.5 0 1 0 -15 0zM1420.98 685.61 a7.5 7.5 0 1 0 15 0 a7.5 7.5 0 1 0 -15 0zM1356.03 648.11 a7.5 7.5 0 1 0 15 0 a7.5 7.5 0 1 0 -15 0zM1356.03 573.11 a7.5 7.5 0 1 0 15 0 a7.5 7.5 0 1 0 -15 0zM1550.89 85.61 a7.5 7.5 0 1 0 15 0 a7.5 7.5 0 1 0 -15 0zM1615.84 123.11 a7.5 7.5 0 1 0 15 0 a7.5 7.5 0 1 0 -15 0zM1615.84 198.11 a7.5 7.5 0 1 0 15 0 a7.5 7.5 0 1 0 -15 0zM1550.89 235.61 a7.5 7.5 0 1 0 15 0 a7.5 7.5 0 1 0 -15 0zM1550.89 310.61 a7.5 7.5 0 1 0 15 0 a7.5 7.5 0 1 0 -15 0zM1615.84 348.11 a7.5 7.5 0 1 0 15 0 a7.5 7.5 0 1 0 -15 0zM1615.84 423.11 a7.5 7.5 0 1 0 15 0 a7.5 7.5 0 1 0 -15 0zM1550.89 460.61 a7.5 7.5 0 1 0 15 0 a7.5 7.5 0 1 0 -15 0zM1485.93 423.11 a7.5 7.5 0 1 0 15 0 a7.5 7.5 0 1 0 -15 0zM1485.93 348.11 a7.5 7.5 0 1 0 15 0 a7.5 7.5 0 1 0 -15 0z" fill="url(#SvgjsLinearGradient1019)"></path><path d="M55.82 220.2L99.13 245.2L99.13 295.2L55.82 320.2L12.52 295.2L12.52 245.2zM99.13 -4.8L142.43 20.2L142.43 70.2L99.13 95.2L55.82 70.2L55.82 20.2zM142.43 520.2L185.73 545.2L185.73 595.2L142.43 620.2L99.13 595.2L99.13 545.2zM229.03 70.2L272.33 95.2L272.33 145.2L229.03 170.2L185.73 145.2L185.73 95.2zM185.73 295.2L229.03 320.2L229.03 370.2L185.73 395.2L142.43 370.2L142.43 320.2zM185.73 445.2L229.03 470.2L229.03 520.2L185.73 545.2L142.43 520.2L142.43 470.2zM315.64 220.2L358.94 245.2L358.94 295.2L315.64 320.2L272.33 295.2L272.33 245.2zM272.33 445.2L315.64 470.2L315.64 520.2L272.33 545.2L229.03 520.2L229.03 470.2zM358.94 145.2L402.24 170.2L402.24 220.2L358.94 245.2L315.64 220.2L315.64 170.2zM402.24 220.2L445.55 245.2L445.55 295.2L402.24 320.2L358.94 295.2L358.94 245.2zM532.15 -4.8L575.45 20.2L575.45 70.2L532.15 95.2L488.85 70.2L488.85 20.2zM532.15 295.2L575.45 320.2L575.45 370.2L532.15 395.2L488.85 370.2L488.85 320.2zM618.75 -4.8L662.06 20.2L662.06 70.2L618.75 95.2L575.45 70.2L575.45 20.2zM662.06 370.2L705.36 395.2L705.36 445.2L662.06 470.2L618.75 445.2L618.75 395.2zM618.75 445.2L662.06 470.2L662.06 520.2L618.75 545.2L575.45 520.2L575.45 470.2zM705.36 -4.8L748.66 20.2L748.66 70.2L705.36 95.2L662.06 70.2L662.06 20.2zM705.36 295.2L748.66 320.2L748.66 370.2L705.36 395.2L662.06 370.2L662.06 320.2zM748.66 370.2L791.97 395.2L791.97 445.2L748.66 470.2L705.36 445.2L705.36 395.2zM791.97 145.2L835.27 170.2L835.27 220.2L791.97 245.2L748.66 220.2L748.66 170.2zM835.27 220.2L878.57 245.2L878.57 295.2L835.27 320.2L791.97 295.2L791.97 245.2zM835.27 370.2L878.57 395.2L878.57 445.2L835.27 470.2L791.97 445.2L791.97 395.2zM791.97 445.2L835.27 470.2L835.27 520.2L791.97 545.2L748.66 520.2L748.66 470.2zM878.57 -4.8L921.87 20.2L921.87 70.2L878.57 95.2L835.27 70.2L835.27 20.2zM921.87 70.2L965.18 95.2L965.18 145.2L921.87 170.2L878.57 145.2L878.57 95.2zM921.87 220.2L965.18 245.2L965.18 295.2L921.87 320.2L878.57 295.2L878.57 245.2zM878.57 295.2L921.87 320.2L921.87 370.2L878.57 395.2L835.27 370.2L835.27 320.2zM878.57 445.2L921.87 470.2L921.87 520.2L878.57 545.2L835.27 520.2L835.27 470.2zM921.87 520.2L965.18 545.2L965.18 595.2L921.87 620.2L878.57 595.2L878.57 545.2zM1008.48 220.2L1051.78 245.2L1051.78 295.2L1008.48 320.2L965.18 295.2L965.18 245.2zM965.18 295.2L1008.48 320.2L1008.48 370.2L965.18 395.2L921.87 370.2L921.87 320.2zM1095.08 70.2L1138.38 95.2L1138.38 145.2L1095.08 170.2L1051.78 145.2L1051.78 95.2zM1095.08 220.2L1138.38 245.2L1138.38 295.2L1095.08 320.2L1051.78 295.2L1051.78 245.2zM1051.78 445.2L1095.08 470.2L1095.08 520.2L1051.78 545.2L1008.48 520.2L1008.48 470.2zM1138.38 -4.8L1181.69 20.2L1181.69 70.2L1138.38 95.2L1095.08 70.2L1095.08 20.2zM1138.38 145.2L1181.69 170.2L1181.69 220.2L1138.38 245.2L1095.08 220.2L1095.08 170.2zM1181.69 220.2L1224.99 245.2L1224.99 295.2L1181.69 320.2L1138.38 295.2L1138.38 245.2zM1138.38 295.2L1181.69 320.2L1181.69 370.2L1138.38 395.2L1095.08 370.2L1095.08 320.2zM1138.38 445.2L1181.69 470.2L1181.69 520.2L1138.38 545.2L1095.08 520.2L1095.08 470.2zM1268.29 70.2L1311.6 95.2L1311.6 145.2L1268.29 170.2L1224.99 145.2L1224.99 95.2zM1224.99 145.2L1268.29 170.2L1268.29 220.2L1224.99 245.2L1181.69 220.2L1181.69 170.2zM1268.29 220.2L1311.6 245.2L1311.6 295.2L1268.29 320.2L1224.99 295.2L1224.99 245.2zM1268.29 370.2L1311.6 395.2L1311.6 445.2L1268.29 470.2L1224.99 445.2L1224.99 395.2zM1224.99 445.2L1268.29 470.2L1268.29 520.2L1224.99 545.2L1181.69 520.2L1181.69 470.2zM1268.29 520.2L1311.6 545.2L1311.6 595.2L1268.29 620.2L1224.99 595.2L1224.99 545.2zM1354.9 70.2L1398.2 95.2L1398.2 145.2L1354.9 170.2L1311.6 145.2L1311.6 95.2zM1311.6 145.2L1354.9 170.2L1354.9 220.2L1311.6 245.2L1268.29 220.2L1268.29 170.2zM1354.9 220.2L1398.2 245.2L1398.2 295.2L1354.9 320.2L1311.6 295.2L1311.6 245.2zM1311.6 295.2L1354.9 320.2L1354.9 370.2L1311.6 395.2L1268.29 370.2L1268.29 320.2zM1311.6 445.2L1354.9 470.2L1354.9 520.2L1311.6 545.2L1268.29 520.2L1268.29 470.2zM1398.2 -4.8L1441.5 20.2L1441.5 70.2L1398.2 95.2L1354.9 70.2L1354.9 20.2zM1441.5 70.2L1484.81 95.2L1484.81 145.2L1441.5 170.2L1398.2 145.2L1398.2 95.2zM1441.5 220.2L1484.81 245.2L1484.81 295.2L1441.5 320.2L1398.2 295.2L1398.2 245.2zM1441.5 370.2L1484.81 395.2L1484.81 445.2L1441.5 470.2L1398.2 445.2L1398.2 395.2z" stroke="rgba(6, 80, 156, 0.93)" stroke-width="2"></path></g><defs><mask id="SvgjsMask1018"><rect width="1440" height="560" fill="#ffffff"></rect></mask><linearGradient x1="220.03199999999998" y1="-220.02399999999997" x2="1219.9679999999998" y2="780.024" gradientUnits="userSpaceOnUse" id="SvgjsLinearGradient1019"><stop stop-color="rgba(158, 0, 129, 1)" offset="0"></stop><stop stop-color="#03305d" offset="1"></stop></linearGradient></defs></svg>