<svg xmlns="http://www.w3.org/2000/svg" version="1.1" xmlns:xlink="http://www.w3.org/1999/xlink" xmlns:svgjs="http://svgjs.com/svgjs" width="1440" height="6000" preserveAspectRatio="none" viewBox="0 0 1440 6000"><g mask="url(&quot;#SvgjsMask1111&quot;)" fill="none"><rect width="1440" height="6000" x="0" y="0" fill="#0e2a47"></rect><path d="M717 4908L1778 3847" stroke-width="10" stroke="url(#SvgjsLinearGradient1112)" stroke-linecap="round" class="BottomLeft"></path><path d="M274 5233L706 4801" stroke-width="8" stroke="url(#SvgjsLinearGradient1112)" stroke-linecap="round" class="BottomLeft"></path><path d="M803 2982L1870 1915" stroke-width="10" stroke="url(#SvgjsLinearGradient1113)" stroke-linecap="round" class="TopRight"></path><path d="M136 2554L1062 1628" stroke-width="6" stroke="url(#SvgjsLinearGradient1113)" stroke-linecap="round" class="TopRight"></path><path d="M1078 2295L1632 1741" stroke-width="8" stroke="url(#SvgjsLinearGradient1113)" stroke-linecap="round" class="TopRight"></path><path d="M1266 4856L278 5844" stroke-width="6" stroke="url(#SvgjsLinearGradient1112)" stroke-linecap="round" class="BottomLeft"></path><path d="M866 3702L-103 4671" stroke-width="10" stroke="url(#SvgjsLinearGradient1112)" stroke-linecap="round" class="BottomLeft"></path><path d="M231 4145L613 3763" stroke-width="10" stroke="url(#SvgjsLinearGradient1113)" stroke-linecap="round" class="TopRight"></path><path d="M399 2343L29 2713" stroke-width="6" stroke="url(#SvgjsLinearGradient1113)" stroke-linecap="round" class="TopRight"></path><path d="M1409 5651L1803 5257" stroke-width="6" stroke="url(#SvgjsLinearGradient1112)" stroke-linecap="round" class="BottomLeft"></path><path d="M285 5407L1258 4434" stroke-width="6" stroke="url(#SvgjsLinearGradient1112)" stroke-linecap="round" class="BottomLeft"></path><path d="M871 3761L1783 2849" stroke-width="6" stroke="url(#SvgjsLinearGradient1113)" stroke-linecap="round" class="TopRight"></path><path d="M33 3045L480 2598" stroke-width="10" stroke="url(#SvgjsLinearGradient1113)" stroke-linecap="round" class="TopRight"></path><path d="M324 1376L-367 2067" stroke-width="8" stroke="url(#SvgjsLinearGradient1112)" stroke-linecap="round" class="BottomLeft"></path><path d="M1068 3492L6 4554" stroke-width="10" stroke="url(#SvgjsLinearGradient1112)" stroke-linecap="round" class="BottomLeft"></path><path d="M527 2982L1147 2362" stroke-width="6" stroke="url(#SvgjsLinearGradient1112)" stroke-linecap="round" class="BottomLeft"></path><path d="M728 4188L-186 5102" stroke-width="10" stroke="url(#SvgjsLinearGradient1113)" stroke-linecap="round" class="TopRight"></path><path d="M573 3404L1074 2903" stroke-width="8" stroke="url(#SvgjsLinearGradient1113)" stroke-linecap="round" class="TopRight"></path><path d="M38 4556L743 3851" stroke-width="6" stroke="url(#SvgjsLinearGradient1113)" stroke-linecap="round" class="TopRight"></path><path d="M299 4470L-615 5384" stroke-width="8" stroke="url(#SvgjsLinearGradient1113)" stroke-linecap="round" class="TopRight"></path><path d="M791 5269L-233 6293" stroke-width="6" stroke="url(#SvgjsLinearGradient1113)" stroke-linecap="round" class="TopRight"></path><path d="M777 3975L1473 3279" stroke-width="10" stroke="url(#SvgjsLinearGradient1113)" stroke-linecap="round" class="TopRight"></path><path d="M609 4987L-279 5875" stroke-width="6" stroke="url(#SvgjsLinearGradient1113)" stroke-linecap="round" class="TopRight"></path><path d="M1097 2068L1924 1241" stroke-width="8" stroke="url(#SvgjsLinearGradient1112)" stroke-linecap="round" class="BottomLeft"></path><path d="M127 3775L1086 2816" stroke-width="10" stroke="url(#SvgjsLinearGradient1112)" stroke-linecap="round" class="BottomLeft"></path><path d="M152 3383L-242 3777" stroke-width="8" stroke="url(#SvgjsLinearGradient1112)" stroke-linecap="round" class="BottomLeft"></path><path d="M515 2042L1206 1351" stroke-width="10" stroke="url(#SvgjsLinearGradient1112)" stroke-linecap="round" class="BottomLeft"></path><path d="M1030 5299L658 5671" stroke-width="10" stroke="url(#SvgjsLinearGradient1113)" stroke-linecap="round" class="TopRight"></path><path d="M579 4435L1528 3486" stroke-width="10" stroke="url(#SvgjsLinearGradient1112)" stroke-linecap="round" class="BottomLeft"></path><path d="M528 5408L-205 6141" stroke-width="6" stroke="url(#SvgjsLinearGradient1113)" stroke-linecap="round" class="TopRight"></path><path d="M1350 3104L747 3707" stroke-width="8" stroke="url(#SvgjsLinearGradient1112)" stroke-linecap="round" class="BottomLeft"></path><path d="M1412 1514L361 2565" stroke-width="10" stroke="url(#SvgjsLinearGradient1113)" stroke-linecap="round" class="TopRight"></path><path d="M168 3301L1153 2316" stroke-width="8" stroke="url(#SvgjsLinearGradient1113)" stroke-linecap="round" class="TopRight"></path><path d="M604 4018L1236 3386" stroke-width="6" stroke="url(#SvgjsLinearGradient1113)" stroke-linecap="round" class="TopRight"></path><path d="M684 4968L1323 4329" stroke-width="8" stroke="url(#SvgjsLinearGradient1112)" stroke-linecap="round" class="BottomLeft"></path><path d="M825 1964L1243 1546" stroke-width="10" stroke="url(#SvgjsLinearGradient1113)" stroke-linecap="round" class="TopRight"></path><path d="M244 3694L1306 2632" stroke-width="6" stroke="url(#SvgjsLinearGradient1112)" stroke-linecap="round" class="BottomLeft"></path><path d="M138 5925L1070 4993" stroke-width="8" stroke="url(#SvgjsLinearGradient1112)" stroke-linecap="round" class="BottomLeft"></path><path d="M106 5799L-636 6541" stroke-width="8" stroke="url(#SvgjsLinearGradient1113)" stroke-linecap="round" class="TopRight"></path><path d="M536 2586L102 3020" stroke-width="8" stroke="url(#SvgjsLinearGradient1112)" stroke-linecap="round" class="BottomLeft"></path><path d="M146 2099L993 1252" stroke-width="8" stroke="url(#SvgjsLinearGradient1112)" stroke-linecap="round" class="BottomLeft"></path><path d="M1109 114L565 658" stroke-width="10" stroke="url(#SvgjsLinearGradient1112)" stroke-linecap="round" class="BottomLeft"></path><path d="M1264 1244L1761 747" stroke-width="10" stroke="url(#SvgjsLinearGradient1112)" stroke-linecap="round" class="BottomLeft"></path><path d="M182 2213L777 1618" stroke-width="6" stroke="url(#SvgjsLinearGradient1112)" stroke-linecap="round" class="BottomLeft"></path><path d="M149 4236L-729 5114" stroke-width="8" stroke="url(#SvgjsLinearGradient1112)" stroke-linecap="round" class="BottomLeft"></path><path d="M773 3611L1354 3030" stroke-width="8" stroke="url(#SvgjsLinearGradient1113)" stroke-linecap="round" class="TopRight"></path><path d="M840 2223L1 3062" stroke-width="6" stroke="url(#SvgjsLinearGradient1112)" stroke-linecap="round" class="BottomLeft"></path><path d="M206 2501L740 1967" stroke-width="10" stroke="url(#SvgjsLinearGradient1113)" stroke-linecap="round" class="TopRight"></path><path d="M1228 3687L594 4321" stroke-width="6" stroke="url(#SvgjsLinearGradient1113)" stroke-linecap="round" class="TopRight"></path><path d="M38 2383L556 1865" stroke-width="8" stroke="url(#SvgjsLinearGradient1113)" stroke-linecap="round" class="TopRight"></path><path d="M23 145L731 -563" stroke-width="10" stroke="url(#SvgjsLinearGradient1112)" stroke-linecap="round" class="BottomLeft"></path><path d="M607 2409L-170 3186" stroke-width="6" stroke="url(#SvgjsLinearGradient1112)" stroke-linecap="round" class="BottomLeft"></path><path d="M391 1284L1245 430" stroke-width="6" stroke="url(#SvgjsLinearGradient1112)" stroke-linecap="round" class="BottomLeft"></path><path d="M667 2661L1209 2119" stroke-width="10" stroke="url(#SvgjsLinearGradient1113)" stroke-linecap="round" class="TopRight"></path><path d="M334 997L-106 1437" stroke-width="8" stroke="url(#SvgjsLinearGradient1113)" stroke-linecap="round" class="TopRight"></path><path d="M958 3104L1633 2429" stroke-width="6" stroke="url(#SvgjsLinearGradient1112)" stroke-linecap="round" class="BottomLeft"></path><path d="M231 381L594 18" stroke-width="6" stroke="url(#SvgjsLinearGradient1113)" stroke-linecap="round" class="TopRight"></path><path d="M659 1327L1141 845" stroke-width="6" stroke="url(#SvgjsLinearGradient1112)" stroke-linecap="round" class="BottomLeft"></path><path d="M1127 1449L2140 436" stroke-width="10" stroke="url(#SvgjsLinearGradient1112)" stroke-linecap="round" class="BottomLeft"></path><path d="M905 3478L1724 2659" stroke-width="8" stroke="url(#SvgjsLinearGradient1113)" stroke-linecap="round" class="TopRight"></path><path d="M662 981L1085 558" stroke-width="10" stroke="url(#SvgjsLinearGradient1112)" stroke-linecap="round" class="BottomLeft"></path><path d="M1124 2162L1621 1665" stroke-width="10" stroke="url(#SvgjsLinearGradient1112)" stroke-linecap="round" class="BottomLeft"></path><path d="M1202 779L268 1713" stroke-width="6" stroke="url(#SvgjsLinearGradient1112)" stroke-linecap="round" class="BottomLeft"></path><path d="M956 608L374 1190" stroke-width="10" stroke="url(#SvgjsLinearGradient1113)" stroke-linecap="round" class="TopRight"></path><path d="M1435 5786L823 6398" stroke-width="8" stroke="url(#SvgjsLinearGradient1113)" stroke-linecap="round" class="TopRight"></path><path d="M1338 1703L1729 1312" stroke-width="6" stroke="url(#SvgjsLinearGradient1113)" stroke-linecap="round" class="TopRight"></path><path d="M1379 2421L515 3285" stroke-width="10" stroke="url(#SvgjsLinearGradient1113)" stroke-linecap="round" class="TopRight"></path><path d="M541 4510L89 4962" stroke-width="8" stroke="url(#SvgjsLinearGradient1112)" stroke-linecap="round" class="BottomLeft"></path><path d="M970 4101L1356 3715" stroke-width="10" stroke="url(#SvgjsLinearGradient1112)" stroke-linecap="round" class="BottomLeft"></path><path d="M1326 4872L368 5830" stroke-width="6" stroke="url(#SvgjsLinearGradient1112)" stroke-linecap="round" class="BottomLeft"></path><path d="M633 1361L1570 424" stroke-width="10" stroke="url(#SvgjsLinearGradient1112)" stroke-linecap="round" class="BottomLeft"></path><path d="M1117 5774L2164 4727" stroke-width="8" stroke="url(#SvgjsLinearGradient1112)" stroke-linecap="round" class="BottomLeft"></path><path d="M37 4059L-1027 5123" stroke-width="6" stroke="url(#SvgjsLinearGradient1112)" stroke-linecap="round" class="BottomLeft"></path><path d="M479 4908L996 4391" stroke-width="10" stroke="url(#SvgjsLinearGradient1112)" stroke-linecap="round" class="BottomLeft"></path><path d="M460 396L965 -109" stroke-width="10" stroke="url(#SvgjsLinearGradient1112)" stroke-linecap="round" class="BottomLeft"></path><path d="M393 2626L-587 3606" stroke-width="6" stroke="url(#SvgjsLinearGradient1113)" stroke-linecap="round" class="TopRight"></path><path d="M639 3575L-207 4421" stroke-width="10" stroke="url(#SvgjsLinearGradient1113)" stroke-linecap="round" class="TopRight"></path><path d="M130 889L822 197" stroke-width="6" stroke="url(#SvgjsLinearGradient1112)" stroke-linecap="round" class="BottomLeft"></path><path d="M15 806L1013 -192" stroke-width="6" stroke="url(#SvgjsLinearGradient1113)" stroke-linecap="round" class="TopRight"></path><path d="M938 2127L1818 1247" stroke-width="8" stroke="url(#SvgjsLinearGradient1112)" stroke-linecap="round" class="BottomLeft"></path><path d="M1387 412L395 1404" stroke-width="6" stroke="url(#SvgjsLinearGradient1112)" stroke-linecap="round" class="BottomLeft"></path><path d="M589 4187L31 4745" stroke-width="10" stroke="url(#SvgjsLinearGradient1113)" stroke-linecap="round" class="TopRight"></path><path d="M1155 54L2087 -878" stroke-width="6" stroke="url(#SvgjsLinearGradient1113)" stroke-linecap="round" class="TopRight"></path><path d="M1370 4150L1960 3560" stroke-width="6" stroke="url(#SvgjsLinearGradient1112)" stroke-linecap="round" class="BottomLeft"></path><path d="M1300 4325L2337 3288" stroke-width="6" stroke="url(#SvgjsLinearGradient1113)" stroke-linecap="round" class="TopRight"></path><path d="M712 1439L1413 738" stroke-width="8" stroke="url(#SvgjsLinearGradient1112)" stroke-linecap="round" class="BottomLeft"></path><path d="M800 5684L1261 5223" stroke-width="10" stroke="url(#SvgjsLinearGradient1113)" stroke-linecap="round" class="TopRight"></path><path d="M1173 5160L701 5632" stroke-width="8" stroke="url(#SvgjsLinearGradient1112)" stroke-linecap="round" class="BottomLeft"></path><path d="M1042 3056L1532 2566" stroke-width="6" stroke="url(#SvgjsLinearGradient1113)" stroke-linecap="round" class="TopRight"></path><path d="M1230 1339L1983 586" stroke-width="8" stroke="url(#SvgjsLinearGradient1112)" stroke-linecap="round" class="BottomLeft"></path><path d="M58 1901L-456 2415" stroke-width="8" stroke="url(#SvgjsLinearGradient1112)" stroke-linecap="round" class="BottomLeft"></path><path d="M301 5335L1233 4403" stroke-width="8" stroke="url(#SvgjsLinearGradient1112)" stroke-linecap="round" class="BottomLeft"></path><path d="M68 4916L859 4125" stroke-width="10" stroke="url(#SvgjsLinearGradient1113)" stroke-linecap="round" class="TopRight"></path><path d="M777 306L77 1006" stroke-width="10" stroke="url(#SvgjsLinearGradient1113)" stroke-linecap="round" class="TopRight"></path><path d="M840 4337L1378 3799" stroke-width="10" stroke="url(#SvgjsLinearGradient1113)" stroke-linecap="round" class="TopRight"></path><path d="M347 3269L1281 2335" stroke-width="10" stroke="url(#SvgjsLinearGradient1113)" stroke-linecap="round" class="TopRight"></path><path d="M977 4039L1740 3276" stroke-width="8" stroke="url(#SvgjsLinearGradient1112)" stroke-linecap="round" class="BottomLeft"></path><path d="M683 2634L1328 1989" stroke-width="6" stroke="url(#SvgjsLinearGradient1113)" stroke-linecap="round" class="TopRight"></path><path d="M889 5896L1636 5149" stroke-width="8" stroke="url(#SvgjsLinearGradient1113)" stroke-linecap="round" class="TopRight"></path><path d="M842 1106L192 1756" stroke-width="10" stroke="url(#SvgjsLinearGradient1112)" stroke-linecap="round" class="BottomLeft"></path><path d="M304 2467L-707 3478" stroke-width="10" stroke="url(#SvgjsLinearGradient1113)" stroke-linecap="round" class="TopRight"></path><path d="M1327 857L2368 -184" stroke-width="6" stroke="url(#SvgjsLinearGradient1112)" stroke-linecap="round" class="BottomLeft"></path><path d="M29 41L-1042 1112" stroke-width="8" stroke="url(#SvgjsLinearGradient1113)" stroke-linecap="round" class="TopRight"></path><path d="M641 1743L1091 1293" stroke-width="6" stroke="url(#SvgjsLinearGradient1113)" stroke-linecap="round" class="TopRight"></path><path d="M301 5823L-261 6385" stroke-width="8" stroke="url(#SvgjsLinearGradient1112)" stroke-linecap="round" class="BottomLeft"></path><path d="M83 4743L-568 5394" stroke-width="8" stroke="url(#SvgjsLinearGradient1112)" stroke-linecap="round" class="BottomLeft"></path><path d="M562 3718L941 3339" stroke-width="8" stroke="url(#SvgjsLinearGradient1113)" stroke-linecap="round" class="TopRight"></path><path d="M661 4060L1259 3462" stroke-width="8" stroke="url(#SvgjsLinearGradient1112)" stroke-linecap="round" class="BottomLeft"></path><path d="M483 1266L-541 2290" stroke-width="6" stroke="url(#SvgjsLinearGradient1113)" stroke-linecap="round" class="TopRight"></path><path d="M668 5276L1638 4306" stroke-width="10" stroke="url(#SvgjsLinearGradient1112)" stroke-linecap="round" class="BottomLeft"></path><path d="M859 5633L1310 5182" stroke-width="6" stroke="url(#SvgjsLinearGradient1113)" stroke-linecap="round" class="TopRight"></path><path d="M158 462L-890 1510" stroke-width="6" stroke="url(#SvgjsLinearGradient1113)" stroke-linecap="round" class="TopRight"></path><path d="M513 4597L1562 3548" stroke-width="10" stroke="url(#SvgjsLinearGradient1112)" stroke-linecap="round" class="BottomLeft"></path><path d="M1247 3487L1896 2838" stroke-width="8" stroke="url(#SvgjsLinearGradient1112)" stroke-linecap="round" class="BottomLeft"></path><path d="M463 492L-399 1354" stroke-width="8" stroke="url(#SvgjsLinearGradient1112)" stroke-linecap="round" class="BottomLeft"></path><path d="M905 1099L1443 561" stroke-width="8" stroke="url(#SvgjsLinearGradient1112)" stroke-linecap="round" class="BottomLeft"></path><path d="M186 4557L992 3751" stroke-width="6" stroke="url(#SvgjsLinearGradient1112)" stroke-linecap="round" class="BottomLeft"></path><path d="M84 5081L668 4497" stroke-width="8" stroke="url(#SvgjsLinearGradient1112)" stroke-linecap="round" class="BottomLeft"></path><path d="M1277 923L2239 -39" stroke-width="8" stroke="url(#SvgjsLinearGradient1112)" stroke-linecap="round" class="BottomLeft"></path><path d="M635 3891L58 4468" stroke-width="10" stroke="url(#SvgjsLinearGradient1113)" stroke-linecap="round" class="TopRight"></path><path d="M1097 1336L715 1718" stroke-width="8" stroke="url(#SvgjsLinearGradient1112)" stroke-linecap="round" class="BottomLeft"></path><path d="M1130 1070L1567 633" stroke-width="6" stroke="url(#SvgjsLinearGradient1113)" stroke-linecap="round" class="TopRight"></path><path d="M1014 5331L-32 6377" stroke-width="10" stroke="url(#SvgjsLinearGradient1113)" stroke-linecap="round" class="TopRight"></path><path d="M912 1749L1959 702" stroke-width="6" stroke="url(#SvgjsLinearGradient1112)" stroke-linecap="round" class="BottomLeft"></path><path d="M889 3354L1715 2528" stroke-width="8" stroke="url(#SvgjsLinearGradient1113)" stroke-linecap="round" class="TopRight"></path><path d="M1216 286L2282 -780" stroke-width="10" stroke="url(#SvgjsLinearGradient1113)" stroke-linecap="round" class="TopRight"></path><path d="M1103 5938L2100 4941" stroke-width="8" stroke="url(#SvgjsLinearGradient1113)" stroke-linecap="round" class="TopRight"></path><path d="M81 4279L516 3844" stroke-width="6" stroke="url(#SvgjsLinearGradient1112)" stroke-linecap="round" class="BottomLeft"></path><path d="M972 5349L46 6275" stroke-width="10" stroke="url(#SvgjsLinearGradient1112)" stroke-linecap="round" class="BottomLeft"></path><path d="M1239 398L460 1177" stroke-width="10" stroke="url(#SvgjsLinearGradient1113)" stroke-linecap="round" class="TopRight"></path><path d="M877 5142L1754 4265" stroke-width="6" stroke="url(#SvgjsLinearGradient1113)" stroke-linecap="round" class="TopRight"></path><path d="M403 4921L-219 5543" stroke-width="6" stroke="url(#SvgjsLinearGradient1113)" stroke-linecap="round" class="TopRight"></path><path d="M244 3159L-146 3549" stroke-width="10" stroke="url(#SvgjsLinearGradient1113)" stroke-linecap="round" class="TopRight"></path><path d="M167 3262L707 2722" stroke-width="6" stroke="url(#SvgjsLinearGradient1113)" stroke-linecap="round" class="TopRight"></path><path d="M219 2327L1230 1316" stroke-width="8" stroke="url(#SvgjsLinearGradient1112)" stroke-linecap="round" class="BottomLeft"></path><path d="M912 5208L1440 4680" stroke-width="8" stroke="url(#SvgjsLinearGradient1113)" stroke-linecap="round" class="TopRight"></path><path d="M1359 3790L1784 3365" stroke-width="10" stroke="url(#SvgjsLinearGradient1113)" stroke-linecap="round" class="TopRight"></path><path d="M361 973L1310 24" stroke-width="10" stroke="url(#SvgjsLinearGradient1113)" stroke-linecap="round" class="TopRight"></path><path d="M1003 1491L247 2247" stroke-width="6" stroke="url(#SvgjsLinearGradient1113)" stroke-linecap="round" class="TopRight"></path><path d="M1157 3366L765 3758" stroke-width="8" stroke="url(#SvgjsLinearGradient1112)" stroke-linecap="round" class="BottomLeft"></path><path d="M1318 5487L1777 5028" stroke-width="8" stroke="url(#SvgjsLinearGradient1112)" stroke-linecap="round" class="BottomLeft"></path><path d="M378 835L1223 -10" stroke-width="6" stroke="url(#SvgjsLinearGradient1112)" stroke-linecap="round" class="BottomLeft"></path><path d="M1104 3787L742 4149" stroke-width="10" stroke="url(#SvgjsLinearGradient1112)" stroke-linecap="round" class="BottomLeft"></path><path d="M474 5341L1127 4688" stroke-width="10" stroke="url(#SvgjsLinearGradient1112)" stroke-linecap="round" class="BottomLeft"></path><path d="M1440 1614L424 2630" stroke-width="6" stroke="url(#SvgjsLinearGradient1112)" stroke-linecap="round" class="BottomLeft"></path><path d="M800 232L240 792" stroke-width="10" stroke="url(#SvgjsLinearGradient1112)" stroke-linecap="round" class="BottomLeft"></path><path d="M759 3536L-305 4600" stroke-width="10" stroke="url(#SvgjsLinearGradient1112)" stroke-linecap="round" class="BottomLeft"></path><path d="M410 2663L856 2217" stroke-width="6" stroke="url(#SvgjsLinearGradient1113)" stroke-linecap="round" class="TopRight"></path><path d="M337 1274L1069 542" stroke-width="6" stroke="url(#SvgjsLinearGradient1113)" stroke-linecap="round" class="TopRight"></path><path d="M400 2858L-14 3272" stroke-width="8" stroke="url(#SvgjsLinearGradient1113)" stroke-linecap="round" class="TopRight"></path><path d="M1319 5594L2049 4864" stroke-width="8" stroke="url(#SvgjsLinearGradient1113)" stroke-linecap="round" class="TopRight"></path><path d="M134 722L509 347" stroke-width="6" stroke="url(#SvgjsLinearGradient1113)" stroke-linecap="round" class="TopRight"></path><path d="M513 4820L1152 4181" stroke-width="8" stroke="url(#SvgjsLinearGradient1112)" stroke-linecap="round" class="BottomLeft"></path><path d="M618 877L-239 1734" stroke-width="6" stroke="url(#SvgjsLinearGradient1112)" stroke-linecap="round" class="BottomLeft"></path><path d="M391 3229L-226 3846" stroke-width="10" stroke="url(#SvgjsLinearGradient1113)" stroke-linecap="round" class="TopRight"></path></g><defs><mask id="SvgjsMask1111"><rect width="1440" height="6000" fill="#ffffff"></rect></mask><linearGradient x1="100%" y1="0%" x2="0%" y2="100%" id="SvgjsLinearGradient1112"><stop stop-color="rgba(28, 83, 142, 0)" offset="0"></stop><stop stop-color="#1c538e" offset="1"></stop></linearGradient><linearGradient x1="0%" y1="100%" x2="100%" y2="0%" id="SvgjsLinearGradient1113"><stop stop-color="rgba(28, 83, 142, 0)" offset="0"></stop><stop stop-color="#1c538e" offset="1"></stop></linearGradient></defs></svg>